<svg xmlns="http://www.w3.org/2000/svg" viewBox="0 0 40 40" width="40" height="40">
  <!-- Open book -->
  <path d="M8 10 C8 7 12 6 20 8 C28 6 32 7 32 10 L32 28 C32 30 28 31 20 29 C12 31 8 30 8 28 Z"
        fill="#e7eeff" stroke="#24389c" stroke-width="1.5" stroke-linejoin="round"/>
  <line x1="20" y1="8" x2="20" y2="29" stroke="#24389c" stroke-width="1.5"/>
  <!-- Compass ring (subtle) -->
  <circle cx="20" cy="12" r="4.5" fill="none" stroke="#bac3ff" stroke-width="1"/>
  <!-- Compass needle N -->
  <polygon points="20,8 21.5,12 20,11 18.5,12" fill="#24389c"/>
  <!-- Compass needle S -->
  <polygon points="20,16 21.5,12 20,13 18.5,12" fill="#c5c5d4"/>
  <!-- Subtle dots suggesting travel pins -->
  <circle cx="28" cy="22" r="1.2" fill="#3f51b5"/>
  <circle cx="14" cy="26" r="1.2" fill="#3f51b5"/>
  <circle cx="26" cy="28" r="0.9" fill="#505f76"/>
</svg>
